<svg xmlns="http://www.w3.org/2000/svg" xmlns:xlink="http://www.w3.org/1999/xlink" width="200" zoomAndPan="magnify" viewBox="0 0 150 52.499999" height="70" preserveAspectRatio="xMidYMid meet" version="1.0"><defs><g><g id="id1"/></g><clipPath id="id2"><path d="M 21.363281 8.003906 L 48.109375 8.003906 L 48.109375 40.691406 L 21.363281 40.691406 Z M 21.363281 8.003906 " clip-rule="nonzero"/></clipPath></defs><path fill="rgb(0%, 64.709473%, 72.938538%)" d="M 30.898438 16.679688 L 34.265625 18.53125 C 34.578125 18.703125 34.886719 18.703125 35.199219 18.53125 L 38.570312 16.679688 C 38.90625 16.492188 39.074219 16.203125 39.074219 15.816406 C 39.074219 15.429688 38.90625 15.140625 38.570312 14.953125 L 35.199219 13.101562 C 34.886719 12.929688 34.578125 12.929688 34.265625 13.101562 L 30.898438 14.953125 C 30.558594 15.140625 30.390625 15.429688 30.390625 15.816406 C 30.390625 16.203125 30.558594 16.492188 30.898438 16.679688 Z M 30.898438 16.679688 " fill-opacity="1" fill-rule="nonzero"/><g clip-path="url(#id2)"><path fill="rgb(0%, 64.709473%, 72.938538%)" d="M 47.921875 33.398438 C 47.925781 33.386719 47.933594 33.378906 47.941406 33.367188 C 47.957031 33.335938 47.972656 33.300781 47.988281 33.269531 C 47.988281 33.265625 47.988281 33.265625 47.988281 33.261719 C 48.003906 33.226562 48.015625 33.1875 48.027344 33.148438 L 48.035156 33.117188 C 48.042969 33.089844 48.046875 33.0625 48.050781 33.03125 C 48.050781 33.019531 48.050781 33.007812 48.058594 32.996094 C 48.058594 32.960938 48.0625 32.925781 48.066406 32.886719 L 48.066406 15.8125 C 48.066406 15.773438 48.0625 15.730469 48.058594 15.691406 C 48.058594 15.683594 48.058594 15.671875 48.058594 15.660156 C 48.058594 15.628906 48.046875 15.597656 48.039062 15.566406 L 48.03125 15.542969 C 48.007812 15.464844 47.976562 15.390625 47.933594 15.324219 L 47.917969 15.296875 C 47.902344 15.269531 47.886719 15.242188 47.867188 15.21875 L 47.851562 15.199219 C 47.824219 15.167969 47.800781 15.136719 47.773438 15.109375 L 47.753906 15.09375 C 47.730469 15.074219 47.707031 15.050781 47.683594 15.035156 L 47.65625 15.011719 C 47.621094 14.988281 47.589844 14.96875 47.550781 14.945312 L 35.199219 8.160156 C 34.886719 7.992188 34.578125 7.992188 34.265625 8.160156 L 21.910156 14.949219 C 21.875 14.96875 21.839844 14.992188 21.804688 15.015625 L 21.78125 15.035156 C 21.757812 15.054688 21.730469 15.074219 21.707031 15.097656 L 21.691406 15.113281 C 21.664062 15.140625 21.636719 15.171875 21.613281 15.199219 L 21.597656 15.222656 C 21.578125 15.246094 21.558594 15.273438 21.542969 15.300781 L 21.527344 15.324219 C 21.488281 15.394531 21.457031 15.46875 21.4375 15.542969 C 21.4375 15.550781 21.4375 15.5625 21.429688 15.570312 C 21.421875 15.601562 21.414062 15.632812 21.410156 15.664062 C 21.410156 15.675781 21.410156 15.683594 21.40625 15.695312 C 21.402344 15.734375 21.398438 15.777344 21.398438 15.816406 L 21.398438 32.890625 C 21.398438 32.925781 21.398438 32.960938 21.40625 33 C 21.40625 33.011719 21.40625 33.023438 21.410156 33.035156 C 21.414062 33.0625 21.421875 33.09375 21.429688 33.121094 L 21.4375 33.152344 C 21.449219 33.191406 21.460938 33.226562 21.476562 33.265625 C 21.476562 33.265625 21.476562 33.269531 21.476562 33.273438 C 21.488281 33.304688 21.503906 33.339844 21.523438 33.371094 C 21.527344 33.378906 21.535156 33.390625 21.542969 33.402344 C 21.546875 33.410156 21.574219 33.449219 21.589844 33.472656 L 21.609375 33.5 C 21.632812 33.527344 21.660156 33.554688 21.683594 33.582031 L 21.710938 33.601562 C 21.730469 33.625 21.75 33.640625 21.773438 33.660156 L 21.804688 33.683594 C 21.835938 33.703125 21.867188 33.722656 21.902344 33.742188 L 34.265625 40.535156 C 34.578125 40.707031 34.886719 40.707031 35.199219 40.535156 L 47.5625 33.742188 L 47.566406 33.742188 C 47.597656 33.722656 47.628906 33.703125 47.660156 33.683594 L 47.691406 33.660156 C 47.710938 33.644531 47.734375 33.625 47.753906 33.605469 L 47.777344 33.582031 C 47.804688 33.554688 47.828125 33.527344 47.851562 33.5 L 47.875 33.472656 C 47.890625 33.445312 47.90625 33.421875 47.921875 33.398438 Z M 38.878906 27.742188 L 34.734375 30.019531 L 30.585938 27.742188 L 24.410156 24.347656 L 30.132812 21.203125 L 34.265625 23.472656 C 34.574219 23.640625 34.886719 23.640625 35.199219 23.472656 L 39.328125 21.203125 L 45.058594 24.347656 L 38.882812 27.738281 Z M 23.347656 17.476562 L 28.097656 20.085938 L 23.347656 22.695312 Z M 23.347656 26.007812 L 28.09375 28.617188 L 23.347656 31.226562 Z M 46.117188 22.695312 L 41.367188 20.082031 L 46.117188 17.472656 Z M 46.117188 26.007812 L 46.117188 31.226562 L 41.371094 28.617188 Z M 34.734375 10.144531 L 45.054688 15.816406 L 38.882812 19.207031 L 34.734375 21.484375 L 30.585938 19.207031 L 24.410156 15.8125 Z M 34.734375 38.550781 L 24.410156 32.878906 L 30.132812 29.730469 L 34.265625 32.003906 C 34.574219 32.171875 34.886719 32.171875 35.199219 32.003906 L 39.328125 29.730469 L 45.054688 32.878906 Z M 34.734375 38.550781 " fill-opacity="1" fill-rule="nonzero"/></g><g fill="rgb(0%, 64.709473%, 72.938538%)" fill-opacity="1"><g transform="translate(49.423618, 22.65498)"><g><path d="M 3.722656 -2.203125 C 4.171875 -2.460938 4.457031 -2.9375 4.457031 -3.59375 C 4.457031 -4.710938 3.777344 -5.144531 2.832031 -5.144531 L 0.40625 -5.144531 L 0.40625 0 L 1.609375 0 L 1.609375 -1.980469 L 2.589844 -1.980469 L 3.335938 0 L 4.613281 0 Z M 2.664062 -4.066406 C 3.054688 -4.066406 3.261719 -3.890625 3.261719 -3.554688 C 3.261719 -3.203125 3.054688 -3.027344 2.664062 -3.027344 L 1.609375 -3.027344 L 1.609375 -4.066406 Z M 2.664062 -4.066406 "/></g></g></g><g fill="rgb(0%, 64.709473%, 72.938538%)" fill-opacity="1"><g transform="translate(55.450828, 22.65498)"><g><path d="M 3.054688 0 L 3.054688 -2.042969 L 4.894531 -5.144531 L 3.484375 -5.144531 L 2.421875 -3.210938 L 1.355469 -5.144531 L -0.0546875 -5.144531 L 1.785156 -2.042969 L 1.785156 0 Z M 3.054688 0 "/></g></g></g><g fill="rgb(0%, 64.709473%, 72.938538%)" fill-opacity="1"><g transform="translate(61.545454, 22.65498)"><g><path d="M 1.292969 0 L 1.570312 -0.921875 L 3.285156 -0.921875 L 3.558594 0 L 4.839844 0 L 3.082031 -5.144531 L 1.773438 -5.144531 L 0.0117188 0 Z M 2.425781 -3.800781 L 2.964844 -1.96875 L 1.886719 -1.96875 Z M 2.425781 -3.800781 "/></g></g></g><g fill="rgb(0%, 64.709473%, 72.938538%)" fill-opacity="1"><g transform="translate(67.653564, 22.65498)"><g><path d="M 1.609375 0 L 1.609375 -3.140625 L 3.585938 0 L 4.8125 0 L 4.8125 -5.144531 L 3.605469 -5.144531 L 3.605469 -2.023438 L 1.632812 -5.144531 L 0.40625 -5.144531 L 0.40625 0 Z M 1.609375 0 "/></g></g></g><g fill="rgb(0%, 64.709473%, 72.938538%)" fill-opacity="1"><g transform="translate(74.125739, 22.65498)"><g/></g></g><g fill="rgb(0%, 64.709473%, 72.938538%)" fill-opacity="1"><g transform="translate(77.1326, 22.65498)"><g><path d="M 2.785156 0.113281 C 4.140625 0.113281 4.929688 -0.632812 5.0625 -1.746094 L 3.742188 -1.746094 C 3.660156 -1.207031 3.269531 -0.964844 2.757812 -0.964844 C 1.941406 -0.964844 1.488281 -1.597656 1.488281 -2.574219 C 1.488281 -3.546875 1.941406 -4.171875 2.757812 -4.171875 C 3.269531 -4.171875 3.667969 -3.929688 3.742188 -3.40625 L 5.0625 -3.40625 C 4.929688 -4.511719 4.140625 -5.25 2.785156 -5.25 C 1.023438 -5.25 0.214844 -4.011719 0.214844 -2.574219 C 0.214844 -1.140625 1.023438 0.113281 2.785156 0.113281 Z M 2.785156 0.113281 "/></g></g></g><g fill="rgb(0%, 64.709473%, 72.938538%)" fill-opacity="1"><g transform="translate(83.638483, 22.65498)"><g><path d="M 2.785156 0.113281 C 4.53125 0.113281 5.347656 -1.140625 5.347656 -2.574219 C 5.347656 -4.011719 4.53125 -5.25 2.785156 -5.25 C 1.023438 -5.25 0.214844 -4.011719 0.214844 -2.574219 C 0.214844 -1.140625 1.023438 0.113281 2.785156 0.113281 Z M 2.785156 -0.964844 C 1.976562 -0.964844 1.488281 -1.597656 1.488281 -2.574219 C 1.488281 -3.546875 1.976562 -4.171875 2.785156 -4.171875 C 3.59375 -4.171875 4.070312 -3.546875 4.070312 -2.574219 C 4.070312 -1.597656 3.59375 -0.964844 2.785156 -0.964844 Z M 2.785156 -0.964844 "/></g></g></g><g fill="rgb(0%, 64.709473%, 72.938538%)" fill-opacity="1"><g transform="translate(90.461228, 22.65498)"><g><path d="M 1.609375 0 L 1.609375 -3.140625 L 3.585938 0 L 4.8125 0 L 4.8125 -5.144531 L 3.605469 -5.144531 L 3.605469 -2.023438 L 1.632812 -5.144531 L 0.40625 -5.144531 L 0.40625 0 Z M 1.609375 0 "/></g></g></g><g fill="rgb(0%, 64.709473%, 72.938538%)" fill-opacity="1"><g transform="translate(96.933403, 22.65498)"><g><path d="M 2.710938 0 L 2.710938 -4.066406 L 4.160156 -4.066406 L 4.160156 -5.144531 L 0.0546875 -5.144531 L 0.0546875 -4.066406 L 1.503906 -4.066406 L 1.503906 0 Z M 2.710938 0 "/></g></g></g><g fill="rgb(0%, 64.709473%, 72.938538%)" fill-opacity="1"><g transform="translate(102.401035, 22.65498)"><g><path d="M 3.917969 0 L 3.917969 -1.078125 L 1.609375 -1.078125 L 1.609375 -2.035156 L 3.695312 -2.035156 L 3.695312 -3.109375 L 1.609375 -3.109375 L 1.609375 -4.066406 L 3.917969 -4.066406 L 3.917969 -5.144531 L 0.40625 -5.144531 L 0.40625 0 Z M 3.917969 0 "/></g></g></g><g fill="rgb(0%, 64.709473%, 72.938538%)" fill-opacity="1"><g transform="translate(107.861929, 22.65498)"><g><path d="M 1.609375 0 L 1.609375 -3.140625 L 3.585938 0 L 4.8125 0 L 4.8125 -5.144531 L 3.605469 -5.144531 L 3.605469 -2.023438 L 1.632812 -5.144531 L 0.40625 -5.144531 L 0.40625 0 Z M 1.609375 0 "/></g></g></g><g fill="rgb(0%, 64.709473%, 72.938538%)" fill-opacity="1"><g transform="translate(114.334104, 22.65498)"><g><path d="M 2.710938 0 L 2.710938 -4.066406 L 4.160156 -4.066406 L 4.160156 -5.144531 L 0.0546875 -5.144531 L 0.0546875 -4.066406 L 1.503906 -4.066406 L 1.503906 0 Z M 2.710938 0 "/></g></g></g><g fill="rgb(0%, 64.709473%, 72.938538%)" fill-opacity="1"><g transform="translate(119.801736, 22.65498)"><g><path d="M 2.785156 0.113281 C 4.53125 0.113281 5.347656 -1.140625 5.347656 -2.574219 C 5.347656 -4.011719 4.53125 -5.25 2.785156 -5.25 C 1.023438 -5.25 0.214844 -4.011719 0.214844 -2.574219 C 0.214844 -1.140625 1.023438 0.113281 2.785156 0.113281 Z M 2.785156 -0.964844 C 1.976562 -0.964844 1.488281 -1.597656 1.488281 -2.574219 C 1.488281 -3.546875 1.976562 -4.171875 2.785156 -4.171875 C 3.59375 -4.171875 4.070312 -3.546875 4.070312 -2.574219 C 4.070312 -1.597656 3.59375 -0.964844 2.785156 -0.964844 Z M 2.785156 -0.964844 "/></g></g></g><g fill="rgb(32.939148%, 32.939148%, 32.939148%)" fill-opacity="1"><g transform="translate(49.423618, 29.556816)"><g><path d="M 2.9375 -1.265625 C 2.9375 -0.847656 2.789062 -0.519531 2.5 -0.28125 C 2.207031 -0.0390625 1.847656 0.078125 1.421875 0.078125 C 0.878906 0.078125 0.414062 -0.0351562 0.03125 -0.265625 L 0.296875 -0.9375 C 0.609375 -0.644531 0.957031 -0.5 1.34375 -0.5 C 1.539062 -0.5 1.710938 -0.550781 1.859375 -0.65625 C 2.003906 -0.769531 2.078125 -0.925781 2.078125 -1.125 C 2.078125 -1.269531 2.023438 -1.394531 1.921875 -1.5 C 1.828125 -1.613281 1.710938 -1.703125 1.578125 -1.765625 C 1.441406 -1.828125 1.289062 -1.898438 1.125 -1.984375 C 0.957031 -2.066406 0.800781 -2.148438 0.65625 -2.234375 C 0.519531 -2.328125 0.40625 -2.453125 0.3125 -2.609375 C 0.21875 -2.773438 0.171875 -2.960938 0.171875 -3.171875 C 0.171875 -3.578125 0.3125 -3.882812 0.59375 -4.09375 C 0.875 -4.300781 1.25 -4.40625 1.71875 -4.40625 C 1.894531 -4.40625 2.097656 -4.367188 2.328125 -4.296875 C 2.566406 -4.222656 2.742188 -4.140625 2.859375 -4.046875 L 2.453125 -3.546875 C 2.234375 -3.742188 1.960938 -3.84375 1.640625 -3.84375 C 1.472656 -3.84375 1.328125 -3.796875 1.203125 -3.703125 C 1.085938 -3.617188 1.03125 -3.5 1.03125 -3.34375 C 1.03125 -3.195312 1.078125 -3.070312 1.171875 -2.96875 C 1.265625 -2.863281 1.378906 -2.78125 1.515625 -2.71875 C 1.660156 -2.65625 1.816406 -2.582031 1.984375 -2.5 C 2.148438 -2.414062 2.300781 -2.328125 2.4375 -2.234375 C 2.582031 -2.148438 2.703125 -2.023438 2.796875 -1.859375 C 2.890625 -1.691406 2.9375 -1.492188 2.9375 -1.265625 Z M 2.9375 -1.265625 "/></g></g></g><g fill="rgb(32.939148%, 32.939148%, 32.939148%)" fill-opacity="1"><g transform="translate(53.236655, 29.556816)"><g><path d="M 4.25 -2.15625 C 4.25 -1.507812 4.0625 -0.976562 3.6875 -0.5625 C 3.3125 -0.144531 2.800781 0.0625 2.15625 0.0625 C 1.519531 0.0625 1.019531 -0.144531 0.65625 -0.5625 C 0.289062 -0.988281 0.109375 -1.523438 0.109375 -2.171875 C 0.109375 -2.828125 0.289062 -3.363281 0.65625 -3.78125 C 1.019531 -4.195312 1.523438 -4.40625 2.171875 -4.40625 C 2.828125 -4.40625 3.335938 -4.195312 3.703125 -3.78125 C 4.066406 -3.363281 4.25 -2.820312 4.25 -2.15625 Z M 3.375 -2.140625 C 3.375 -2.347656 3.351562 -2.546875 3.3125 -2.734375 C 3.269531 -2.921875 3.207031 -3.097656 3.125 -3.265625 C 3.039062 -3.441406 2.914062 -3.582031 2.75 -3.6875 C 2.582031 -3.789062 2.390625 -3.84375 2.171875 -3.84375 C 1.953125 -3.84375 1.757812 -3.789062 1.59375 -3.6875 C 1.4375 -3.59375 1.3125 -3.460938 1.21875 -3.296875 C 1.132812 -3.140625 1.070312 -2.96875 1.03125 -2.78125 C 1 -2.59375 0.984375 -2.398438 0.984375 -2.203125 C 0.984375 -1.992188 1 -1.796875 1.03125 -1.609375 C 1.070312 -1.421875 1.132812 -1.238281 1.21875 -1.0625 C 1.3125 -0.894531 1.441406 -0.757812 1.609375 -0.65625 C 1.773438 -0.550781 1.96875 -0.5 2.1875 -0.5 C 2.40625 -0.5 2.59375 -0.546875 2.75 -0.640625 C 2.914062 -0.734375 3.039062 -0.863281 3.125 -1.03125 C 3.207031 -1.195312 3.269531 -1.367188 3.3125 -1.546875 C 3.351562 -1.734375 3.375 -1.929688 3.375 -2.140625 Z M 3.375 -2.140625 "/></g></g></g><g fill="rgb(32.939148%, 32.939148%, 32.939148%)" fill-opacity="1"><g transform="translate(58.3582, 29.556816)"><g><path d="M 2.859375 -3.75 L 1.21875 -3.75 L 1.21875 -2.515625 L 2.484375 -2.515625 L 2.484375 -1.9375 L 1.21875 -1.9375 L 1.21875 0 L 0.390625 0 L 0.390625 -3.96875 C 0.390625 -3.976562 0.382812 -4.007812 0.375 -4.0625 C 0.363281 -4.113281 0.347656 -4.171875 0.328125 -4.234375 C 0.316406 -4.296875 0.3125 -4.328125 0.3125 -4.328125 L 2.859375 -4.328125 Z M 2.859375 -3.75 "/></g></g></g><g fill="rgb(32.939148%, 32.939148%, 32.939148%)" fill-opacity="1"><g transform="translate(62.13571, 29.556816)"><g><path d="M 3.34375 -3.75 L 2.125 -3.75 L 2.125 0 L 1.28125 0 L 1.28125 -3.75 L 0.078125 -3.75 L 0.078125 -4.328125 L 3.34375 -4.328125 Z M 3.34375 -3.75 "/></g></g></g><g fill="rgb(32.939148%, 32.939148%, 32.939148%)" fill-opacity="1"><g transform="translate(66.31584, 29.556816)"><g><path d="M 5.375 -4.328125 L 4.171875 0.015625 L 3.4375 0.015625 C 3.394531 -0.140625 3.320312 -0.394531 3.21875 -0.75 C 3.125 -1.101562 3.039062 -1.410156 2.96875 -1.671875 C 2.894531 -1.941406 2.828125 -2.203125 2.765625 -2.453125 C 2.710938 -2.691406 2.675781 -2.910156 2.65625 -3.109375 C 2.601562 -2.765625 2.535156 -2.441406 2.453125 -2.140625 L 1.859375 0.015625 L 1.109375 0.015625 L -0.078125 -4.328125 L 0.734375 -4.328125 C 1.148438 -2.828125 1.378906 -1.992188 1.421875 -1.828125 C 1.472656 -1.617188 1.519531 -1.367188 1.5625 -1.078125 C 1.59375 -1.335938 1.660156 -1.660156 1.765625 -2.046875 L 2.390625 -4.328125 L 3.078125 -4.328125 C 3.117188 -4.160156 3.191406 -3.898438 3.296875 -3.546875 C 3.398438 -3.203125 3.488281 -2.890625 3.5625 -2.609375 C 3.632812 -2.328125 3.703125 -2.0625 3.765625 -1.8125 C 3.816406 -1.625 3.859375 -1.378906 3.890625 -1.078125 C 3.941406 -1.421875 4.007812 -1.742188 4.09375 -2.046875 L 4.71875 -4.328125 Z M 5.375 -4.328125 "/></g></g></g><g fill="rgb(32.939148%, 32.939148%, 32.939148%)" fill-opacity="1"><g transform="translate(72.366964, 29.556816)"><g><path d="M 3.71875 0 L 2.84375 0 L 2.421875 -1.25 L 1.140625 -1.25 L 0.703125 0 L 0.015625 0 L 1.546875 -4.328125 L 2.1875 -4.328125 Z M 2.234375 -1.828125 C 2.035156 -2.398438 1.882812 -2.890625 1.78125 -3.296875 C 1.644531 -2.804688 1.5 -2.316406 1.34375 -1.828125 Z M 2.234375 -1.828125 "/></g></g></g><g fill="rgb(32.939148%, 32.939148%, 32.939148%)" fill-opacity="1"><g transform="translate(76.860899, 29.556816)"><g><path d="M 3.65625 0 L 2.734375 0 L 1.53125 -1.9375 L 1.203125 -1.9375 L 1.203125 0 L 0.390625 0 L 0.390625 -3.96875 C 0.390625 -3.976562 0.375 -4.035156 0.34375 -4.140625 C 0.320312 -4.253906 0.304688 -4.316406 0.296875 -4.328125 L 1.78125 -4.328125 C 2.226562 -4.328125 2.582031 -4.234375 2.84375 -4.046875 C 3.113281 -3.867188 3.25 -3.570312 3.25 -3.15625 C 3.25 -2.90625 3.15625 -2.671875 2.96875 -2.453125 C 2.78125 -2.242188 2.566406 -2.113281 2.328125 -2.0625 Z M 2.390625 -3.15625 C 2.390625 -3.34375 2.320312 -3.488281 2.1875 -3.59375 C 2.0625 -3.695312 1.90625 -3.75 1.71875 -3.75 L 1.203125 -3.75 L 1.203125 -2.515625 L 1.578125 -2.515625 C 2.117188 -2.515625 2.390625 -2.726562 2.390625 -3.15625 Z M 2.390625 -3.15625 "/></g></g></g><g fill="rgb(32.939148%, 32.939148%, 32.939148%)" fill-opacity="1"><g transform="translate(81.118003, 29.556816)"><g><path d="M 3.03125 0 L 0.390625 0 L 0.390625 -3.96875 L 0.3125 -4.328125 L 3.03125 -4.328125 L 3.03125 -3.75 L 1.203125 -3.75 L 1.203125 -2.515625 L 2.609375 -2.515625 L 2.609375 -1.9375 L 1.203125 -1.9375 L 1.203125 -0.59375 L 3.03125 -0.59375 Z M 3.03125 0 "/></g></g></g><g fill="rgb(32.939148%, 32.939148%, 32.939148%)" fill-opacity="1"><g transform="translate(85.126427, 29.556816)"><g/></g></g><g fill="rgb(32.939148%, 32.939148%, 32.939148%)" fill-opacity="1"><g transform="translate(87.246098, 29.556816)"><g><path d="M 4.03125 -2.15625 C 4.03125 -1.5 3.828125 -0.96875 3.421875 -0.5625 C 3.046875 -0.1875 2.550781 0 1.9375 0 L 0.390625 0 L 0.390625 -3.96875 C 0.390625 -3.976562 0.375 -4.035156 0.34375 -4.140625 C 0.320312 -4.253906 0.304688 -4.316406 0.296875 -4.328125 L 1.9375 -4.328125 C 2.59375 -4.328125 3.101562 -4.128906 3.46875 -3.734375 C 3.84375 -3.335938 4.03125 -2.8125 4.03125 -2.15625 Z M 3.15625 -2.140625 C 3.15625 -2.421875 3.113281 -2.675781 3.03125 -2.90625 C 2.945312 -3.144531 2.804688 -3.34375 2.609375 -3.5 C 2.421875 -3.664062 2.179688 -3.75 1.890625 -3.75 L 1.21875 -3.75 L 1.21875 -0.59375 L 1.90625 -0.59375 C 2.125 -0.59375 2.3125 -0.632812 2.46875 -0.71875 C 2.632812 -0.800781 2.765625 -0.914062 2.859375 -1.0625 C 2.960938 -1.207031 3.035156 -1.367188 3.078125 -1.546875 C 3.128906 -1.734375 3.15625 -1.929688 3.15625 -2.140625 Z M 3.15625 -2.140625 "/></g></g></g><g fill="rgb(32.939148%, 32.939148%, 32.939148%)" fill-opacity="1"><g transform="translate(92.142656, 29.556816)"><g><path d="M 3.03125 0 L 0.390625 0 L 0.390625 -3.96875 L 0.3125 -4.328125 L 3.03125 -4.328125 L 3.03125 -3.75 L 1.203125 -3.75 L 1.203125 -2.515625 L 2.609375 -2.515625 L 2.609375 -1.9375 L 1.203125 -1.9375 L 1.203125 -0.59375 L 3.03125 -0.59375 Z M 3.03125 0 "/></g></g></g><g fill="rgb(32.939148%, 32.939148%, 32.939148%)" fill-opacity="1"><g transform="translate(96.15108, 29.556816)"><g><path d="M 3.578125 -4.328125 L 2.078125 0.015625 L 1.5 0.015625 L 0 -4.328125 L 0.859375 -4.328125 C 1.398438 -2.765625 1.6875 -1.941406 1.71875 -1.859375 C 1.769531 -1.679688 1.828125 -1.453125 1.890625 -1.171875 C 1.941406 -1.441406 2.015625 -1.710938 2.109375 -1.984375 L 2.90625 -4.328125 Z M 3.578125 -4.328125 "/></g></g></g><g fill="rgb(32.939148%, 32.939148%, 32.939148%)" fill-opacity="1"><g transform="translate(100.479235, 29.556816)"><g><path d="M 3.03125 0 L 0.390625 0 L 0.390625 -3.96875 L 0.3125 -4.328125 L 3.03125 -4.328125 L 3.03125 -3.75 L 1.203125 -3.75 L 1.203125 -2.515625 L 2.609375 -2.515625 L 2.609375 -1.9375 L 1.203125 -1.9375 L 1.203125 -0.59375 L 3.03125 -0.59375 Z M 3.03125 0 "/></g></g></g><g fill="rgb(32.939148%, 32.939148%, 32.939148%)" fill-opacity="1"><g transform="translate(104.487659, 29.556816)"><g><path d="M 2.90625 0 L 0.390625 0 L 0.390625 -3.96875 C 0.390625 -3.976562 0.382812 -4.007812 0.375 -4.0625 C 0.363281 -4.113281 0.347656 -4.171875 0.328125 -4.234375 C 0.316406 -4.296875 0.3125 -4.328125 0.3125 -4.328125 L 1.21875 -4.328125 L 1.21875 -0.59375 L 2.90625 -0.59375 Z M 2.90625 0 "/></g></g></g><g fill="rgb(32.939148%, 32.939148%, 32.939148%)" fill-opacity="1"><g transform="translate(108.288856, 29.556816)"><g><path d="M 4.25 -2.15625 C 4.25 -1.507812 4.0625 -0.976562 3.6875 -0.5625 C 3.3125 -0.144531 2.800781 0.0625 2.15625 0.0625 C 1.519531 0.0625 1.019531 -0.144531 0.65625 -0.5625 C 0.289062 -0.988281 0.109375 -1.523438 0.109375 -2.171875 C 0.109375 -2.828125 0.289062 -3.363281 0.65625 -3.78125 C 1.019531 -4.195312 1.523438 -4.40625 2.171875 -4.40625 C 2.828125 -4.40625 3.335938 -4.195312 3.703125 -3.78125 C 4.066406 -3.363281 4.25 -2.820312 4.25 -2.15625 Z M 3.375 -2.140625 C 3.375 -2.347656 3.351562 -2.546875 3.3125 -2.734375 C 3.269531 -2.921875 3.207031 -3.097656 3.125 -3.265625 C 3.039062 -3.441406 2.914062 -3.582031 2.75 -3.6875 C 2.582031 -3.789062 2.390625 -3.84375 2.171875 -3.84375 C 1.953125 -3.84375 1.757812 -3.789062 1.59375 -3.6875 C 1.4375 -3.59375 1.3125 -3.460938 1.21875 -3.296875 C 1.132812 -3.140625 1.070312 -2.96875 1.03125 -2.78125 C 1 -2.59375 0.984375 -2.398438 0.984375 -2.203125 C 0.984375 -1.992188 1 -1.796875 1.03125 -1.609375 C 1.070312 -1.421875 1.132812 -1.238281 1.21875 -1.0625 C 1.3125 -0.894531 1.441406 -0.757812 1.609375 -0.65625 C 1.773438 -0.550781 1.96875 -0.5 2.1875 -0.5 C 2.40625 -0.5 2.59375 -0.546875 2.75 -0.640625 C 2.914062 -0.734375 3.039062 -0.863281 3.125 -1.03125 C 3.207031 -1.195312 3.269531 -1.367188 3.3125 -1.546875 C 3.351562 -1.734375 3.375 -1.929688 3.375 -2.140625 Z M 3.375 -2.140625 "/></g></g></g><g fill="rgb(32.939148%, 32.939148%, 32.939148%)" fill-opacity="1"><g transform="translate(113.410402, 29.556816)"><g><path d="M 3.25 -3.03125 C 3.25 -2.601562 3.097656 -2.28125 2.796875 -2.0625 C 2.492188 -1.84375 2.125 -1.734375 1.6875 -1.734375 L 1.203125 -1.734375 L 1.203125 0 L 0.390625 0 L 0.390625 -3.96875 C 0.390625 -3.976562 0.375 -4.035156 0.34375 -4.140625 C 0.320312 -4.253906 0.304688 -4.316406 0.296875 -4.328125 L 1.671875 -4.328125 C 2.148438 -4.328125 2.53125 -4.222656 2.8125 -4.015625 C 3.101562 -3.816406 3.25 -3.488281 3.25 -3.03125 Z M 2.390625 -3.03125 C 2.390625 -3.257812 2.332031 -3.4375 2.21875 -3.5625 C 2.101562 -3.6875 1.9375 -3.75 1.71875 -3.75 L 1.203125 -3.75 L 1.203125 -2.3125 L 1.703125 -2.3125 C 1.921875 -2.3125 2.085938 -2.378906 2.203125 -2.515625 C 2.328125 -2.648438 2.390625 -2.820312 2.390625 -3.03125 Z M 2.390625 -3.03125 "/></g></g></g><g fill="rgb(32.939148%, 32.939148%, 32.939148%)" fill-opacity="1"><g transform="translate(117.57277, 29.556816)"><g><path d="M 3.03125 0 L 0.390625 0 L 0.390625 -3.96875 L 0.3125 -4.328125 L 3.03125 -4.328125 L 3.03125 -3.75 L 1.203125 -3.75 L 1.203125 -2.515625 L 2.609375 -2.515625 L 2.609375 -1.9375 L 1.203125 -1.9375 L 1.203125 -0.59375 L 3.03125 -0.59375 Z M 3.03125 0 "/></g></g></g><g fill="rgb(32.939148%, 32.939148%, 32.939148%)" fill-opacity="1"><g transform="translate(121.581191, 29.556816)"><g><path d="M 3.65625 0 L 2.734375 0 L 1.53125 -1.9375 L 1.203125 -1.9375 L 1.203125 0 L 0.390625 0 L 0.390625 -3.96875 C 0.390625 -3.976562 0.375 -4.035156 0.34375 -4.140625 C 0.320312 -4.253906 0.304688 -4.316406 0.296875 -4.328125 L 1.78125 -4.328125 C 2.226562 -4.328125 2.582031 -4.234375 2.84375 -4.046875 C 3.113281 -3.867188 3.25 -3.570312 3.25 -3.15625 C 3.25 -2.90625 3.15625 -2.671875 2.96875 -2.453125 C 2.78125 -2.242188 2.566406 -2.113281 2.328125 -2.0625 Z M 2.390625 -3.15625 C 2.390625 -3.34375 2.320312 -3.488281 2.1875 -3.59375 C 2.0625 -3.695312 1.90625 -3.75 1.71875 -3.75 L 1.203125 -3.75 L 1.203125 -2.515625 L 1.578125 -2.515625 C 2.117188 -2.515625 2.390625 -2.726562 2.390625 -3.15625 Z M 2.390625 -3.15625 "/></g></g></g></svg>