<svg xmlns="http://www.w3.org/2000/svg" xmlns:xlink="http://www.w3.org/1999/xlink" width="2240" zoomAndPan="magnify" viewBox="0 0 1680 944.999993" height="1260" preserveAspectRatio="xMidYMid meet" version="1.0"><defs><g><g id="id1"/><g id="id2"/></g><clipPath id="id3"><path d="M 115.304688 111.566406 L 740 111.566406 L 740 792.566406 L 115.304688 792.566406 Z M 115.304688 111.566406 " clip-rule="nonzero"/></clipPath></defs><g clip-path="url(#id3)"><path fill="rgb(89.019775%, 65.489197%, 18.429565%)" d="M 294.972656 319.648438 L 294.972656 375.476562 L 683.980469 375.476562 L 683.980469 736.742188 L 322.871094 736.742188 L 322.871094 584.484375 L 560.386719 584.484375 L 560.386719 528.660156 L 503.425781 528.660156 L 503.425781 528.191406 L 267.070312 528.191406 L 267.070312 528.660156 L 171.371094 528.660156 L 171.371094 167.390625 L 560.386719 167.390625 L 560.386719 111.566406 L 115.570312 111.566406 L 115.570312 584.484375 L 267.070312 584.484375 L 267.070312 792.566406 L 739.789062 792.566406 L 739.789062 319.648438 L 294.972656 319.648438 " fill-opacity="1" fill-rule="nonzero"/></g><g fill="rgb(89.019775%, 65.489197%, 18.429565%)" fill-opacity="1"><g transform="translate(856.550414, 514.499995)"><g><path d="M 37.921875 0 L 26.28125 0 L 26.28125 -73.6875 C 23.5625 -74.320312 20.84375 -74.640625 18.125 -74.640625 L 1.921875 -70.921875 L 1.203125 -79.4375 L 63 -79.4375 L 62.40625 -70.921875 L 46.078125 -74.640625 C 43.359375 -74.640625 40.640625 -74.320312 37.921875 -73.6875 Z M 37.921875 0 "/></g></g></g><g fill="rgb(89.019775%, 65.489197%, 18.429565%)" fill-opacity="1"><g transform="translate(920.75045, 514.499995)"><g><path d="M 1.203125 0 L 36.84375 -81.359375 L 38.640625 -81.359375 L 74.28125 0 L 61.203125 0 L 52.203125 -21.59375 L 16.5625 -21.59375 L 7.6875 0 Z M 18.359375 -26.15625 L 50.28125 -26.15625 L 34.4375 -65.046875 Z M 18.359375 -26.15625 "/></g></g></g><g fill="rgb(89.019775%, 65.489197%, 18.429565%)" fill-opacity="1"><g transform="translate(996.230492, 514.499995)"><g><path d="M 47.40625 1.4375 C 35 1.4375 24.554688 -1.921875 16.078125 -8.640625 C 7.597656 -15.359375 3.359375 -25 3.359375 -37.5625 C 3.359375 -44.914062 4.757812 -51.472656 7.5625 -57.234375 C 10.363281 -62.992188 14.039062 -67.515625 18.59375 -70.796875 C 27.800781 -77.515625 38.125 -80.875 49.5625 -80.875 C 56.195312 -80.875 63.113281 -79.675781 70.3125 -77.28125 L 69.125 -69.125 C 65.363281 -70.71875 62.441406 -71.914062 60.359375 -72.71875 C 54.359375 -74.875 48.316406 -75.953125 42.234375 -75.953125 C 33.835938 -74.035156 27.378906 -69.875 22.859375 -63.46875 C 18.335938 -57.070312 16.078125 -49.078125 16.078125 -39.484375 C 16.078125 -27.722656 19.15625 -18.660156 25.3125 -12.296875 C 31.476562 -5.941406 39.597656 -2.765625 49.671875 -2.765625 C 59.753906 -2.765625 67.273438 -4.921875 72.234375 -9.234375 L 72.234375 -2.640625 C 65.359375 0.078125 57.082031 1.4375 47.40625 1.4375 Z M 47.40625 1.4375 "/></g></g></g><g fill="rgb(89.019775%, 65.489197%, 18.429565%)" fill-opacity="1"><g transform="translate(1072.07053, 514.499995)"><g><path d="M 46.921875 -80.875 C 57.316406 -80.875 65.914062 -77.453125 72.71875 -70.609375 C 79.519531 -63.773438 82.921875 -54.28125 82.921875 -42.125 C 82.921875 -34.28125 81.5625 -27.414062 78.84375 -21.53125 C 76.125 -15.65625 72.5625 -11.117188 68.15625 -7.921875 C 59.59375 -1.679688 50.148438 1.4375 39.828125 1.4375 C 29.515625 1.4375 20.976562 -2.019531 14.21875 -8.9375 C 7.457031 -15.851562 4.078125 -25.394531 4.078125 -37.5625 C 4.078125 -43.882812 4.976562 -49.582031 6.78125 -54.65625 C 8.582031 -59.738281 10.941406 -63.878906 13.859375 -67.078125 C 16.773438 -70.273438 20.15625 -72.957031 24 -75.125 C 31.039062 -78.957031 38.679688 -80.875 46.921875 -80.875 Z M 22.796875 -13.6875 C 24.878906 -10.164062 27.679688 -7.421875 31.203125 -5.453125 C 34.722656 -3.492188 38.78125 -2.515625 43.375 -2.515625 C 47.976562 -2.515625 52.078125 -3.675781 55.671875 -6 C 59.273438 -8.320312 62.078125 -11.363281 64.078125 -15.125 C 68.160156 -22.644531 70.203125 -30.722656 70.203125 -39.359375 C 70.203125 -49.992188 68.082031 -58.554688 63.84375 -65.046875 C 59.125 -72.316406 51.320312 -75.953125 40.4375 -75.953125 C 32.675781 -73.234375 26.796875 -68.550781 22.796875 -61.90625 C 18.796875 -55.269531 16.796875 -47.753906 16.796875 -39.359375 C 16.796875 -29.117188 18.796875 -20.5625 22.796875 -13.6875 Z M 22.796875 -13.6875 "/></g></g></g><g fill="rgb(89.019775%, 65.489197%, 18.429565%)" fill-opacity="1"><g transform="translate(1159.070571, 514.499995)"><g><path d="M 47.40625 1.4375 C 35 1.4375 24.554688 -1.921875 16.078125 -8.640625 C 7.597656 -15.359375 3.359375 -25 3.359375 -37.5625 C 3.359375 -44.914062 4.757812 -51.472656 7.5625 -57.234375 C 10.363281 -62.992188 14.039062 -67.515625 18.59375 -70.796875 C 27.800781 -77.515625 38.125 -80.875 49.5625 -80.875 C 56.195312 -80.875 63.113281 -79.675781 70.3125 -77.28125 L 69.125 -69.125 C 65.363281 -70.71875 62.441406 -71.914062 60.359375 -72.71875 C 54.359375 -74.875 48.316406 -75.953125 42.234375 -75.953125 C 33.835938 -74.035156 27.378906 -69.875 22.859375 -63.46875 C 18.335938 -57.070312 16.078125 -49.078125 16.078125 -39.484375 C 16.078125 -27.722656 19.15625 -18.660156 25.3125 -12.296875 C 31.476562 -5.941406 39.597656 -2.765625 49.671875 -2.765625 C 59.753906 -2.765625 67.273438 -4.921875 72.234375 -9.234375 L 72.234375 -2.640625 C 65.359375 0.078125 57.082031 1.4375 47.40625 1.4375 Z M 47.40625 1.4375 "/></g></g></g><g fill="rgb(89.019775%, 65.489197%, 18.429565%)" fill-opacity="1"><g transform="translate(1234.91061, 514.499995)"><g><path d="M 1.203125 0 L 36.84375 -81.359375 L 38.640625 -81.359375 L 74.28125 0 L 61.203125 0 L 52.203125 -21.59375 L 16.5625 -21.59375 L 7.6875 0 Z M 18.359375 -26.15625 L 50.28125 -26.15625 L 34.4375 -65.046875 Z M 18.359375 -26.15625 "/></g></g></g><g fill="rgb(89.019775%, 65.489197%, 18.429565%)" fill-opacity="1"><g transform="translate(1310.390663, 514.499995)"><g><path d="M 37.921875 0 L 26.28125 0 L 26.28125 -73.6875 C 23.5625 -74.320312 20.84375 -74.640625 18.125 -74.640625 L 1.921875 -70.921875 L 1.203125 -79.4375 L 63 -79.4375 L 62.40625 -70.921875 L 46.078125 -74.640625 C 43.359375 -74.640625 40.640625 -74.320312 37.921875 -73.6875 Z M 37.921875 0 "/></g></g></g><g fill="rgb(89.019775%, 65.489197%, 18.429565%)" fill-opacity="1"><g transform="translate(788.473317, 628.073725)"><g><path d="M 8.734375 -31.78125 L 8.734375 0 L 4.3125 0 L 4.3125 -31.78125 Z M 8.734375 -31.78125 "/></g></g></g><g fill="rgb(89.019775%, 65.489197%, 18.429565%)" fill-opacity="1"><g transform="translate(812.281297, 628.073725)"><g><path d="M 7.78125 -26.25 C 7.78125 -24.84375 8.332031 -23.539062 9.4375 -22.34375 C 10.539062 -21.144531 11.882812 -20.085938 13.46875 -19.171875 C 15.050781 -18.265625 16.625 -17.335938 18.1875 -16.390625 C 19.757812 -15.441406 21.097656 -14.28125 22.203125 -12.90625 C 23.304688 -11.53125 23.859375 -10.015625 23.859375 -8.359375 C 23.859375 -5.734375 22.890625 -3.585938 20.953125 -1.921875 C 19.015625 -0.253906 16.394531 0.578125 13.09375 0.578125 C 9.800781 0.578125 6.539062 -0.046875 3.3125 -1.296875 L 3.3125 -3.546875 C 6.570312 -1.921875 9.347656 -1.109375 11.640625 -1.109375 C 13.929688 -1.109375 15.710938 -1.664062 16.984375 -2.78125 C 18.265625 -3.90625 18.90625 -5.457031 18.90625 -7.4375 C 18.90625 -8.78125 18.378906 -10.003906 17.328125 -11.109375 C 16.273438 -12.210938 14.992188 -13.171875 13.484375 -13.984375 C 11.984375 -14.804688 10.476562 -15.648438 8.96875 -16.515625 C 7.46875 -17.378906 6.1875 -18.472656 5.125 -19.796875 C 4.070312 -21.128906 3.546875 -22.738281 3.546875 -24.625 C 3.546875 -26.507812 4.382812 -28.269531 6.0625 -29.90625 C 7.75 -31.539062 10.253906 -32.359375 13.578125 -32.359375 C 15.753906 -32.359375 18.507812 -31.859375 21.84375 -30.859375 L 21.359375 -27.59375 C 17.035156 -29.457031 13.335938 -30.390625 10.265625 -30.390625 C 8.609375 -29.585938 7.78125 -28.207031 7.78125 -26.25 Z M 7.78125 -26.25 "/></g></g></g><g fill="rgb(89.019775%, 65.489197%, 18.429565%)" fill-opacity="1"><g transform="translate(849.721248, 628.073725)"><g/></g></g><g fill="rgb(89.019775%, 65.489197%, 18.429565%)" fill-opacity="1"><g transform="translate(872.473223, 628.073725)"><g><path d="M 8.734375 -31.78125 L 8.734375 0 L 4.3125 0 L 4.3125 -31.78125 Z M 8.734375 -31.78125 "/></g></g></g><g fill="rgb(89.019775%, 65.489197%, 18.429565%)" fill-opacity="1"><g transform="translate(896.281201, 628.073725)"><g><path d="M 15.171875 0 L 10.515625 0 L 10.515625 -29.46875 C 9.421875 -29.726562 8.332031 -29.859375 7.25 -29.859375 L 0.765625 -28.375 L 0.484375 -31.78125 L 25.203125 -31.78125 L 24.953125 -28.375 L 18.4375 -29.859375 C 17.34375 -29.859375 16.253906 -29.726562 15.171875 -29.46875 Z M 15.171875 0 "/></g></g></g><g fill="rgb(89.019775%, 65.489197%, 18.429565%)" fill-opacity="1"><g transform="translate(932.713157, 628.073725)"><g/></g></g><g fill="rgb(89.019775%, 65.489197%, 18.429565%)" fill-opacity="1"><g transform="translate(955.465132, 628.073725)"><g><path d="M 0.484375 0 L 14.734375 -32.546875 L 15.453125 -32.546875 L 29.71875 0 L 24.484375 0 L 20.875 -8.640625 L 6.625 -8.640625 L 3.078125 0 Z M 7.34375 -10.46875 L 20.109375 -10.46875 L 13.78125 -26.015625 Z M 7.34375 -10.46875 "/></g></g></g><g fill="rgb(89.019775%, 65.489197%, 18.429565%)" fill-opacity="1"><g transform="translate(996.409069, 628.073725)"><g/></g></g><g fill="rgb(89.019775%, 65.489197%, 18.429565%)" fill-opacity="1"><g transform="translate(1019.161044, 628.073725)"><g><path d="M 25.6875 -23.515625 C 25.6875 -20.441406 24.554688 -18.113281 22.296875 -16.53125 C 20.035156 -14.945312 16.972656 -14.15625 13.109375 -14.15625 L 8.96875 -14.15625 L 8.96875 0 L 4.3125 0 L 4.3125 -31.78125 L 14.640625 -31.78125 C 17.867188 -31.78125 20.515625 -31.039062 22.578125 -29.5625 C 24.648438 -28.09375 25.6875 -26.078125 25.6875 -23.515625 Z M 8.96875 -15.546875 L 13.25 -15.546875 C 14.75 -15.546875 16.035156 -15.832031 17.109375 -16.40625 C 18.179688 -16.988281 18.957031 -17.726562 19.4375 -18.625 C 20.300781 -20.226562 20.734375 -21.78125 20.734375 -23.28125 C 20.734375 -24.019531 20.539062 -24.898438 20.15625 -25.921875 C 19.394531 -28.035156 17.8125 -29.410156 15.40625 -30.046875 C 13.101562 -30.046875 10.957031 -29.773438 8.96875 -29.234375 Z M 8.96875 -15.546875 "/></g></g></g><g fill="rgb(89.019775%, 65.489197%, 18.429565%)" fill-opacity="1"><g transform="translate(1056.120995, 628.073725)"><g><path d="M 0.484375 0 L 14.734375 -32.546875 L 15.453125 -32.546875 L 29.71875 0 L 24.484375 0 L 20.875 -8.640625 L 6.625 -8.640625 L 3.078125 0 Z M 7.34375 -10.46875 L 20.109375 -10.46875 L 13.78125 -26.015625 Z M 7.34375 -10.46875 "/></g></g></g><g fill="rgb(89.019775%, 65.489197%, 18.429565%)" fill-opacity="1"><g transform="translate(1097.064933, 628.073725)"><g><path d="M 4.3125 0 L 4.3125 -31.78125 L 9.03125 -31.78125 L 9.03125 -2.59375 C 10.976562 -2.019531 12.546875 -1.734375 13.734375 -1.734375 L 22.421875 -3.21875 L 21.84375 0 Z M 4.3125 0 "/></g></g></g><g fill="rgb(89.019775%, 65.489197%, 18.429565%)" fill-opacity="1"><g transform="translate(1131.192906, 628.073725)"><g><path d="M 8.734375 -31.78125 L 8.734375 0 L 4.3125 0 L 4.3125 -31.78125 Z M 8.734375 -31.78125 "/></g></g></g><g fill="rgb(89.019775%, 65.489197%, 18.429565%)" fill-opacity="1"><g transform="translate(1155.000896, 628.073725)"><g><path d="M 28.46875 0.53125 L 27.640625 0.53125 L 6.625 -25.78125 L 6.4375 -25.78125 L 6.4375 0 L 4.3125 0 L 4.3125 -31.78125 L 7.875 -31.78125 L 26.15625 -8.6875 L 26.359375 -8.6875 L 26.359375 -31.78125 L 28.46875 -31.78125 Z M 28.46875 0.53125 "/></g></g></g><g fill="rgb(89.019775%, 65.489197%, 18.429565%)" fill-opacity="1"><g transform="translate(1198.536851, 628.073725)"><g><path d="M 4.3125 0 L 4.3125 -31.78125 L 13.390625 -31.78125 C 17.171875 -31.78125 20.578125 -30.976562 23.609375 -29.375 C 25.242188 -28.539062 26.671875 -27.5 27.890625 -26.25 C 29.109375 -25.007812 30.082031 -23.421875 30.8125 -21.484375 C 31.550781 -19.546875 31.921875 -17.394531 31.921875 -15.03125 C 31.921875 -11.632812 31.070312 -8.769531 29.375 -6.4375 C 26.269531 -2.144531 21.242188 0 14.296875 0 Z M 13.34375 -1.625 C 17.40625 -1.625 20.664062 -2.820312 23.125 -5.21875 C 25.59375 -7.625 26.828125 -11.148438 26.828125 -15.796875 C 26.828125 -19.378906 25.847656 -22.441406 23.890625 -24.984375 C 21.941406 -27.523438 19.414062 -29.210938 16.3125 -30.046875 C 13.53125 -30.046875 11.101562 -29.710938 9.03125 -29.046875 L 9.03125 -2.0625 C 10.050781 -1.769531 11.488281 -1.625 13.34375 -1.625 Z M 13.34375 -1.625 "/></g></g></g><g fill="rgb(89.019775%, 65.489197%, 18.429565%)" fill-opacity="1"><g transform="translate(1243.272765, 628.073725)"><g><path d="M 9.03125 -15.171875 L 9.03125 0 L 4.3125 0 L 4.3125 -31.78125 L 14.6875 -31.78125 C 17.914062 -31.78125 20.5625 -31.054688 22.625 -29.609375 C 24.695312 -28.171875 25.734375 -26.273438 25.734375 -23.921875 C 25.734375 -21.578125 24.90625 -19.722656 23.25 -18.359375 C 21.601562 -16.992188 19.375 -16.054688 16.5625 -15.546875 L 29.421875 0 L 23.859375 0.671875 L 12.71875 -15.171875 Z M 9.03125 -16.609375 L 12.09375 -16.609375 C 17.851562 -16.609375 20.734375 -18.878906 20.734375 -23.421875 C 20.734375 -24.191406 20.539062 -25.054688 20.15625 -26.015625 C 19.425781 -28.035156 17.859375 -29.363281 15.453125 -30 C 13.273438 -30 11.132812 -29.726562 9.03125 -29.1875 Z M 9.03125 -16.609375 "/></g></g></g><g fill="rgb(89.019775%, 65.489197%, 18.429565%)" fill-opacity="1"><g transform="translate(1284.648694, 628.073725)"><g><path d="M 18.765625 -32.359375 C 22.929688 -32.359375 26.375 -30.988281 29.09375 -28.25 C 31.8125 -25.507812 33.171875 -21.707031 33.171875 -16.84375 C 33.171875 -13.707031 32.625 -10.960938 31.53125 -8.609375 C 30.445312 -6.265625 29.023438 -4.453125 27.265625 -3.171875 C 23.835938 -0.671875 20.0625 0.578125 15.9375 0.578125 C 11.8125 0.578125 8.394531 -0.804688 5.6875 -3.578125 C 2.976562 -6.347656 1.625 -10.164062 1.625 -15.03125 C 1.625 -17.550781 1.984375 -19.828125 2.703125 -21.859375 C 3.429688 -23.890625 4.378906 -25.546875 5.546875 -26.828125 C 6.710938 -28.109375 8.0625 -29.179688 9.59375 -30.046875 C 12.414062 -31.585938 15.472656 -32.359375 18.765625 -32.359375 Z M 9.125 -5.46875 C 9.957031 -4.0625 11.078125 -2.96875 12.484375 -2.1875 C 13.890625 -1.40625 15.507812 -1.015625 17.34375 -1.015625 C 19.1875 -1.015625 20.828125 -1.476562 22.265625 -2.40625 C 23.710938 -3.332031 24.832031 -4.546875 25.625 -6.046875 C 27.257812 -9.054688 28.078125 -12.289062 28.078125 -15.75 C 28.078125 -20 27.226562 -23.421875 25.53125 -26.015625 C 23.644531 -28.929688 20.523438 -30.390625 16.171875 -30.390625 C 13.066406 -29.296875 10.710938 -27.421875 9.109375 -24.765625 C 7.515625 -22.109375 6.71875 -19.101562 6.71875 -15.75 C 6.71875 -11.644531 7.519531 -8.21875 9.125 -5.46875 Z M 9.125 -5.46875 "/></g></g></g><g fill="rgb(89.019775%, 65.489197%, 18.429565%)" fill-opacity="1"><g transform="translate(1330.200617, 628.073725)"><g><path d="M 21.265625 -7.53125 L 31.875 -31.78125 L 36.765625 -31.78125 L 38.546875 0 L 33.640625 0 L 32.359375 -27.3125 L 32.15625 -27.3125 L 20.0625 0 L 19.390625 0 L 7.53125 -26.203125 L 7.34375 -26.203125 L 6.046875 0 L 3.9375 0 L 5.71875 -31.78125 L 10.171875 -31.78125 Z M 21.265625 -7.53125 "/></g></g></g><g fill="rgb(89.019775%, 65.489197%, 18.429565%)" fill-opacity="1"><g transform="translate(1383.624565, 628.073725)"><g><path d="M 4.3125 0 L 4.3125 -31.78125 L 23.5625 -31.78125 L 23.09375 -28.5625 L 14.15625 -30.046875 C 12.59375 -30.046875 10.863281 -29.773438 8.96875 -29.234375 L 8.96875 -17.5625 L 19.625 -17.5625 L 19.625 -15.75 L 8.96875 -15.75 L 8.96875 -1.734375 L 23.859375 -3.21875 L 23.375 0 Z M 4.3125 0 "/></g></g></g><g fill="rgb(89.019775%, 65.489197%, 18.429565%)" fill-opacity="1"><g transform="translate(1421.35253, 628.073725)"><g><path d="M 7.484375 -2.03125 C 7.484375 -2.820312 7.738281 -3.460938 8.25 -3.953125 C 8.769531 -4.453125 9.390625 -4.703125 10.109375 -4.703125 C 10.828125 -4.703125 11.441406 -4.445312 11.953125 -3.9375 C 12.460938 -3.425781 12.71875 -2.789062 12.71875 -2.03125 C 12.71875 -1.28125 12.445312 -0.6875 11.90625 -0.25 C 11.363281 0.175781 10.769531 0.390625 10.125 0.390625 C 9.488281 0.390625 8.890625 0.179688 8.328125 -0.234375 C 7.765625 -0.648438 7.484375 -1.25 7.484375 -2.03125 Z M 9.9375 -31.4375 C 13.519531 -31.4375 16.085938 -30.644531 17.640625 -29.0625 C 19.191406 -27.476562 19.96875 -25.585938 19.96875 -23.390625 C 19.96875 -21.203125 19.03125 -18.707031 17.15625 -15.90625 C 15.289062 -13.113281 13.03125 -10.375 10.375 -7.6875 L 8.96875 -8.78125 C 11.050781 -11.019531 12.738281 -13.394531 14.03125 -15.90625 C 15.332031 -18.425781 15.984375 -20.707031 15.984375 -22.75 C 15.984375 -25.664062 14.609375 -27.664062 11.859375 -28.75 C 9.679688 -28.75 7.390625 -28.398438 4.984375 -27.703125 L 4.984375 -30.71875 C 6.847656 -31.195312 8.5 -31.4375 9.9375 -31.4375 Z M 9.9375 -31.4375 "/></g></g></g></svg>